<svg width="22" height="22" viewBox="0 0 22 22" fill="none" xmlns="http://www.w3.org/2000/svg">
<path d="M13.9438 0L15.742 2.78038L19.0494 2.9459L19.2165 6.25271L21.9984 8.04938L20.4893 10.9974L22 13.9438L19.2196 15.742L19.0541 19.0494L15.7473 19.2165L13.9506 21.9984L11.0026 20.4893L8.05619 22L6.25795 19.2196L2.95062 19.0541L2.78352 15.7473L0.00157144 13.9506L1.51067 11.0026L0 8.05619L2.78038 6.25795L2.9459 2.95062L6.25271 2.78352L8.04938 0.00157144L10.9974 1.51067L13.9438 0Z" fill="url(#paint0_linear_1_1602)"/>
<path d="M9.85818 15L7 11.1463L7.93352 9.88779L9.87226 12.5026L14.0814 7L15 8.27805L9.85818 15Z" fill="white"/>
<defs>
<linearGradient id="paint0_linear_1_1602" x1="0" y1="0" x2="23.5159" y2="1.76141" gradientUnits="userSpaceOnUse">
<stop stop-color="#F254F6"/>
<stop offset="1" stop-color="#FC83CC"/>
</linearGradient>
</defs>
</svg>
