<svg width="169" height="40" viewBox="0 0 169 40" fill="none" xmlns="http://www.w3.org/2000/svg">
<path d="M53.904 30V10.232H58.3V30H53.904ZM70.7031 30V22.244C70.7031 21.5347 70.4791 20.9653 70.0311 20.536C69.6018 20.088 69.0511 19.864 68.3791 19.864C67.9125 19.864 67.5018 19.9667 67.1471 20.172C66.7925 20.3587 66.5125 20.6387 66.3071 21.012C66.1018 21.3667 65.9991 21.7773 65.9991 22.244L64.3471 21.432C64.3471 20.368 64.5805 19.4347 65.0471 18.632C65.5138 17.8293 66.1578 17.2133 66.9791 16.784C67.8191 16.336 68.7618 16.112 69.8071 16.112C70.8151 16.112 71.7018 16.3547 72.4671 16.84C73.2511 17.3067 73.8671 17.932 74.3151 18.716C74.7631 19.5 74.9871 20.3587 74.9871 21.292V30H70.7031ZM61.7151 30V16.392H65.9991V30H61.7151ZM82.0226 30L76.2546 16.392H80.8746L84.7946 27.732H82.7786L86.6986 16.392H91.2346L85.4666 29.972L82.0226 30ZM99.1148 30.308C97.6401 30.308 96.3241 30.0093 95.1668 29.412C94.0281 28.796 93.1321 27.9467 92.4788 26.864C91.8255 25.7813 91.4988 24.5587 91.4988 23.196C91.4988 21.8333 91.8161 20.62 92.4508 19.556C93.1041 18.4733 93.9815 17.624 95.0828 17.008C96.1841 16.392 97.4255 16.084 98.8068 16.084C100.151 16.084 101.336 16.3733 102.363 16.952C103.389 17.5307 104.192 18.3333 104.771 19.36C105.368 20.3867 105.667 21.5627 105.667 22.888C105.667 23.1307 105.648 23.392 105.611 23.672C105.592 23.9333 105.545 24.2413 105.471 24.596L93.7388 24.624V21.684L103.651 21.656L101.803 22.888C101.784 22.104 101.663 21.46 101.439 20.956C101.215 20.4333 100.879 20.0413 100.431 19.78C100.001 19.5 99.4695 19.36 98.8348 19.36C98.1628 19.36 97.5748 19.5187 97.0708 19.836C96.5855 20.1347 96.2028 20.564 95.9228 21.124C95.6615 21.684 95.5308 22.3653 95.5308 23.168C95.5308 23.9707 95.6708 24.6613 95.9508 25.24C96.2495 25.8 96.6601 26.2387 97.1828 26.556C97.7241 26.8547 98.3588 27.004 99.0868 27.004C99.7588 27.004 100.365 26.892 100.907 26.668C101.448 26.4253 101.924 26.0707 102.335 25.604L104.687 27.956C104.015 28.74 103.203 29.328 102.251 29.72C101.299 30.112 100.253 30.308 99.1148 30.308ZM112.691 30.336C111.888 30.336 111.095 30.2333 110.311 30.028C109.545 29.8227 108.827 29.5333 108.155 29.16C107.501 28.768 106.941 28.32 106.475 27.816L108.911 25.352C109.359 25.8373 109.891 26.22 110.507 26.5C111.123 26.7613 111.795 26.892 112.523 26.892C113.027 26.892 113.409 26.8173 113.671 26.668C113.951 26.5187 114.091 26.3133 114.091 26.052C114.091 25.716 113.923 25.464 113.587 25.296C113.269 25.1093 112.859 24.9507 112.355 24.82C111.851 24.6707 111.319 24.512 110.759 24.344C110.199 24.176 109.667 23.9427 109.163 23.644C108.659 23.3453 108.248 22.9347 107.931 22.412C107.613 21.8707 107.455 21.1893 107.455 20.368C107.455 19.4907 107.679 18.7347 108.127 18.1C108.575 17.4467 109.209 16.9333 110.031 16.56C110.852 16.1867 111.813 16 112.915 16C114.072 16 115.136 16.2053 116.107 16.616C117.096 17.008 117.899 17.596 118.515 18.38L116.079 20.844C115.649 20.34 115.164 19.9853 114.623 19.78C114.1 19.5747 113.587 19.472 113.083 19.472C112.597 19.472 112.233 19.5467 111.991 19.696C111.748 19.8267 111.627 20.0227 111.627 20.284C111.627 20.564 111.785 20.788 112.103 20.956C112.42 21.124 112.831 21.2733 113.335 21.404C113.839 21.5347 114.371 21.6933 114.931 21.88C115.491 22.0667 116.023 22.3187 116.527 22.636C117.031 22.9533 117.441 23.3827 117.759 23.924C118.076 24.4467 118.235 25.1373 118.235 25.996C118.235 27.3213 117.731 28.376 116.723 29.16C115.733 29.944 114.389 30.336 112.691 30.336ZM122.491 30V10.764H126.775V30H122.491ZM119.411 20.032V16.392H129.855V20.032H119.411ZM131.742 30V16.392H136.026V30H131.742ZM133.898 14.516C133.226 14.516 132.666 14.292 132.218 13.844C131.789 13.3773 131.574 12.8173 131.574 12.164C131.574 11.492 131.789 10.932 132.218 10.484C132.666 10.036 133.226 9.812 133.898 9.812C134.57 9.812 135.121 10.036 135.55 10.484C135.98 10.932 136.194 11.492 136.194 12.164C136.194 12.8173 135.98 13.3773 135.55 13.844C135.121 14.292 134.57 14.516 133.898 14.516ZM148.031 30V22.244C148.031 21.5347 147.807 20.9653 147.359 20.536C146.93 20.088 146.379 19.864 145.707 19.864C145.241 19.864 144.83 19.9667 144.475 20.172C144.121 20.3587 143.841 20.6387 143.635 21.012C143.43 21.3667 143.327 21.7773 143.327 22.244L141.675 21.432C141.675 20.368 141.909 19.4347 142.375 18.632C142.842 17.8293 143.486 17.2133 144.307 16.784C145.147 16.336 146.09 16.112 147.135 16.112C148.143 16.112 149.03 16.3547 149.795 16.84C150.579 17.3067 151.195 17.932 151.643 18.716C152.091 19.5 152.315 20.3587 152.315 21.292V30H148.031ZM139.043 30V16.392H143.327V30H139.043ZM163.775 30L159.015 22.944L163.747 16.392H168.535L162.823 23.756L162.963 21.992L168.815 30H163.775ZM155.067 30V9.672H159.351V30H155.067Z" fill="#060620"/>
<path fill-rule="evenodd" clip-rule="evenodd" d="M8.55273 3.59787C7.12207 4.59823 5.82837 5.78098 4.70532 7.1124C9.29462 6.68633 15.1252 7.38204 21.8944 10.7667C29.123 14.3809 34.9438 14.5031 38.9948 13.7217C38.6272 12.6088 38.1644 11.5392 37.6163 10.5224C32.979 11.0115 27.034 10.3641 20.1056 6.89998C15.706 4.70018 11.8278 3.79401 8.55273 3.59787ZM34.9074 6.66665C31.2453 2.575 25.9234 0 20 0C18.2605 0 16.5727 0.222107 14.9637 0.63948C17.1429 1.23409 19.4579 2.10399 21.8944 3.32227C26.967 5.85853 31.3464 6.67516 34.9074 6.66665ZM39.8609 17.6281C34.9669 18.5945 28.2088 18.396 20.1056 14.3444C12.53 10.5566 6.50043 10.6043 2.4339 11.508C2.224 11.5546 2.01904 11.6036 1.81903 11.6546C1.28662 12.8125 0.861634 14.0301 0.556702 15.2945C0.882386 15.2075 1.21893 15.1248 1.56616 15.0476C6.49957 13.9513 13.4701 13.9989 21.8944 18.2111C29.4701 21.9989 35.4996 21.9512 39.5662 21.0475C39.7055 21.0166 39.8428 20.9846 39.9778 20.9516C39.9926 20.6363 40 20.319 40 20C40 19.1975 39.9528 18.406 39.8609 17.6281ZM39.3248 25.1723C34.4783 26.0196 27.917 25.6944 20.1056 21.7888C12.53 18.001 6.50043 18.0487 2.4339 18.9524C1.53125 19.1529 0.719239 19.3972 0.00293 19.6551C0.000977 19.7698 0 19.8848 0 20C0 31.0457 8.95429 40 20 40C29.2571 40 37.0453 33.7109 39.3248 25.1723Z" fill="url(#paint0_linear_118_10)"/>
<defs>
<linearGradient id="paint0_linear_118_10" x1="0" y1="0" x2="42.7562" y2="3.20257" gradientUnits="userSpaceOnUse">
<stop stop-color="#F254F6"/>
<stop offset="1" stop-color="#FC83CC"/>
</linearGradient>
</defs>
</svg>
