<svg width="34" height="34" viewBox="0 0 34 34" fill="none" xmlns="http://www.w3.org/2000/svg">
<circle cx="17" cy="17" r="17" fill="#271F22"/>
<path d="M18.8333 9.39587C17.8111 9.39587 16.8308 9.80194 16.108 10.5247C15.3852 11.2475 14.9792 12.2279 14.9792 13.25V15.3959H12.9167C12.8131 15.3959 12.7292 15.4798 12.7292 15.5834V18.4167C12.7292 18.5203 12.8131 18.6042 12.9167 18.6042H14.9792V24.4167C14.9792 24.5203 15.0631 24.6042 15.1667 24.6042H18C18.1035 24.6042 18.1875 24.5203 18.1875 24.4167V18.6042H20.2683C20.3543 18.6042 20.4293 18.5457 20.4502 18.4622L21.1585 15.6288C21.1881 15.5105 21.0986 15.3959 20.9766 15.3959H18.1875V13.25C18.1875 13.0788 18.2555 12.9145 18.3767 12.7934C18.4978 12.6723 18.662 12.6042 18.8333 12.6042H21C21.1035 12.6042 21.1875 12.5203 21.1875 12.4167V9.58337C21.1875 9.47982 21.1035 9.39587 21 9.39587H18.8333Z" fill="white" fill-opacity="0.8"/>
</svg>
