<svg width="34" height="34" viewBox="0 0 34 34" fill="none" xmlns="http://www.w3.org/2000/svg">
<circle cx="17" cy="17" r="17" fill="#271F22"/>
<path d="M17 14.2917C15.5043 14.2917 14.2917 15.5042 14.2917 17C14.2917 18.4958 15.5043 19.7083 17 19.7083C18.4958 19.7083 19.7084 18.4958 19.7084 17C19.7084 15.5042 18.4958 14.2917 17 14.2917Z" fill="white" fill-opacity="0.8"/>
<path fill-rule="evenodd" clip-rule="evenodd" d="M12.6413 9.56789C15.5147 9.24674 18.4853 9.24674 21.3588 9.56789C22.9408 9.7447 24.2168 10.9912 24.4024 12.5787C24.746 15.5162 24.746 18.4838 24.4024 21.4213C24.2168 23.0088 22.9408 24.2553 21.3588 24.4321C18.4853 24.7533 15.5147 24.7533 12.6413 24.4321C11.0593 24.2553 9.78332 23.0088 9.59764 21.4213C9.25407 18.4838 9.25407 15.5162 9.59764 12.5787C9.78332 10.9912 11.0593 9.7447 12.6413 9.56789ZM21.1667 12C20.7065 12 20.3334 12.3731 20.3334 12.8333C20.3334 13.2936 20.7065 13.6667 21.1667 13.6667C21.6269 13.6667 22 13.2936 22 12.8333C22 12.3731 21.6269 12 21.1667 12ZM13.0417 17C13.0417 14.8139 14.8139 13.0417 17 13.0417C19.1862 13.0417 20.9584 14.8139 20.9584 17C20.9584 19.1861 19.1862 20.9583 17 20.9583C14.8139 20.9583 13.0417 19.1861 13.0417 17Z" fill="white" fill-opacity="0.8"/>
</svg>
