<svg width="34" height="34" viewBox="0 0 34 34" fill="none" xmlns="http://www.w3.org/2000/svg">
<circle cx="17" cy="17" r="17" fill="#271F22"/>
<path d="M24.9845 11.1888C25.0321 11.1094 24.9618 11.0069 24.8858 11.0422C24.3455 11.2931 23.7807 11.4624 23.2047 11.5459C23.8461 11.0868 24.341 10.388 24.6155 9.56068C24.6434 9.4764 24.5666 9.40114 24.5004 9.44498C23.9042 9.83939 23.2613 10.1234 22.5935 10.287C22.5656 10.2938 22.5367 10.2824 22.5171 10.2576C22.0159 9.62405 21.3562 9.20223 20.6371 9.05646C19.9028 8.90763 19.148 9.05499 18.4912 9.47543C17.8343 9.89587 17.3125 10.5656 17.0076 11.3796C16.7178 12.1536 16.6395 13.0163 16.7825 13.8449C16.7936 13.9092 16.7516 13.9699 16.6969 13.9658C15.3975 13.8691 14.128 13.4551 12.9664 12.7486C11.8079 12.0439 10.7819 11.0636 9.95106 9.86804C9.91419 9.81498 9.8443 9.82185 9.81743 9.88293C9.5589 10.4707 9.42354 11.1257 9.42391 11.7915C9.42286 12.4543 9.55862 13.107 9.81909 13.6917C10.0796 14.2764 10.4567 14.7748 10.9168 15.1426C10.4288 15.1267 9.95033 14.9822 9.51517 14.7201C9.45909 14.6864 9.39182 14.7344 9.39473 14.8096C9.42867 15.6834 9.69645 16.5607 10.16 17.2338C10.6532 17.9501 11.3378 18.4403 12.098 18.6215C11.8054 18.7282 11.5016 18.7844 11.1957 18.7886C11.0293 18.7862 10.8631 18.7715 10.6983 18.7445C10.6371 18.7345 10.5872 18.8041 10.6086 18.8734C10.8354 19.608 11.2359 20.2489 11.7626 20.7168C12.3257 21.217 13.0049 21.4945 13.7058 21.5107C12.5223 22.6264 11.0611 23.2352 9.55516 23.2403C9.40042 23.2409 9.24574 23.2349 9.09143 23.2223C9.00448 23.2152 8.96449 23.354 9.03944 23.4073C10.5067 24.4505 12.1838 25.0019 13.8945 24.9994C15.1575 25.0151 16.4104 24.7292 17.5801 24.1582C18.7498 23.5873 19.8128 22.7429 20.7071 21.6743C21.6014 20.6057 22.3089 19.3343 22.7885 17.9345C23.268 16.5346 23.5099 15.0343 23.5 13.5211V13.0496C23.5 13.0186 23.5123 12.9894 23.5329 12.9707C24.0893 12.4674 24.5786 11.8665 24.9845 11.1888Z" fill="white" fill-opacity="0.8"/>
</svg>
